<?xml version="1.0" standalone="no"?>
<!DOCTYPE svg PUBLIC "-//W3C//DTD SVG 20010904//EN"
 "http://www.w3.org/TR/2001/REC-SVG-20010904/DTD/svg10.dtd">
<svg version="1.0" xmlns="http://www.w3.org/2000/svg"
 width="626.000000pt" height="626.000000pt" viewBox="0 0 626.000000 626.000000"
 preserveAspectRatio="xMidYMid meet">

<g transform="translate(0.000000,626.000000) scale(0.100000,-0.100000)"
fill="#000000" stroke="none">
<path d="M1610 5253 c-287 -50 -508 -248 -587 -524 -17 -61 -18 -145 -18
-1599 0 -1443 1 -1539 18 -1598 57 -200 184 -357 367 -451 153 -78 132 -76
794 -76 433 0 590 3 593 11 2 7 13 10 23 7 14 -4 23 2 32 23 7 16 18 33 26 37
7 5 21 18 32 30 10 12 40 45 67 74 26 28 82 89 123 135 41 45 92 100 113 121
20 21 34 44 31 49 -4 6 -3 8 3 5 6 -4 26 11 45 32 l36 38 -44 11 c-31 8 -189
12 -530 12 -554 0 -580 3 -729 75 -191 93 -314 237 -386 450 l-24 70 -3 910
c-3 1031 -5 1000 73 1160 78 161 188 269 350 346 152 71 131 70 1150 67 l910
-3 70 -24 c213 -72 357 -195 450 -386 71 -146 75 -180 76 -677 1 -238 5 -444
9 -458 6 -18 8 -20 9 -7 1 10 6 15 11 12 6 -3 10 -1 10 4 0 6 6 11 14 11 8 0
20 13 27 29 7 16 16 28 20 25 4 -2 21 13 39 34 105 123 228 252 240 252 6 0
10 6 10 14 0 7 18 34 40 59 22 25 40 56 40 69 0 18 2 20 10 8 8 -13 14 -10 35
15 13 17 25 37 25 45 1 10 4 9 10 -5 7 -16 9 -14 9 15 1 23 4 30 10 22 12 -20
21 221 21 575 0 366 -7 419 -75 558 -78 160 -178 259 -340 336 -153 73 -63 69
-1722 68 -818 -1 -1499 -4 -1513 -6z"/>
<path d="M2180 4466 c-181 -51 -338 -209 -386 -391 -20 -73 -20 -1817 0 -1890
33 -125 125 -253 233 -321 28 -19 86 -45 127 -59 l76 -26 636 3 c592 3 636 4
648 21 7 9 18 17 24 17 6 0 21 17 33 38 13 20 34 45 46 55 13 10 23 24 23 31
0 14 37 49 63 59 10 4 21 15 24 24 4 10 21 32 37 49 17 17 42 47 56 67 14 20
30 37 37 37 6 0 15 9 18 20 4 11 17 28 31 36 13 9 22 20 19 24 -2 4 7 12 20
18 14 7 24 15 23 20 -2 5 18 29 45 55 26 25 47 48 47 51 0 2 27 32 60 66 33
34 60 66 60 70 0 5 14 17 30 27 17 9 33 26 36 37 4 11 43 56 88 102 45 45 95
99 111 120 l30 39 3 582 3 582 -26 76 c-33 98 -77 166 -151 235 -66 61 -143
104 -225 125 -74 20 -1828 20 -1899 1z m2009 -233 c70 -53 93 -151 51 -221
-77 -126 -281 -79 -297 69 -13 129 145 227 246 152z m-785 -147 c222 -67 429
-217 549 -398 56 -85 114 -212 138 -303 27 -102 37 -314 20 -421 -63 -388
-344 -691 -744 -802 -48 -13 -101 -17 -237 -17 -208 1 -276 16 -437 95 -255
126 -434 339 -520 617 -25 82 -27 101 -27 273 0 173 2 191 27 273 83 268 252
476 490 602 173 92 277 116 492 111 139 -3 172 -7 249 -30z"/>
<path d="M2940 3890 c-41 -11 -118 -41 -170 -67 -80 -40 -110 -62 -190 -143
-81 -80 -103 -110 -143 -190 -63 -127 -87 -225 -87 -360 0 -224 84 -418 247
-570 151 -141 325 -210 533 -210 221 0 391 72 550 230 160 160 229 329 230
556 0 357 -241 664 -594 754 -105 27 -271 27 -376 0z"/>
</g>
</svg>
